<?xml version="1.0" encoding="utf-8"?>
<!-- Generator: Adobe Illustrator 15.0.0, SVG Export Plug-In . SVG Version: 6.00 Build 0)  -->
<!DOCTYPE svg PUBLIC "-//W3C//DTD SVG 1.1//EN" "http://www.w3.org/Graphics/SVG/1.1/DTD/svg11.dtd">
<svg version="1.1" id="Layer_1" xmlns="http://www.w3.org/2000/svg" xmlns:xlink="http://www.w3.org/1999/xlink" x="0px" y="0px"
	 width="500px" height="500px" viewBox="0 0 500 500" enable-background="new 0 0 500 500" xml:space="preserve">
<path fill="none" stroke="#000000" stroke-miterlimit="10" d="M230.689,489.348c-2.023-6.697-3.408-11.593-3.727-18.634
	c-0.591-13.053-6.101-29.101-10.435-41.475c-3.984-11.372-1.272-24.431-3.335-36.333c-2.372-13.682-14.963-26.938-23.526-37.081
	c-9.389-11.122-17.836-23.891-25.889-36.015c-13.814-20.801-23.208-43.004-35.594-64.563
	c-10.007-17.419-20.851-33.996-29.153-52.312c-7.669-16.918-12.239-32.501-16.629-50.404c-3.023-12.328-4.18-25.93-1.213-38.412
	c2.223-9.353,2.773-20.034,5.982-29.023c4.745-13.292,10.427-15.351,23.505-18.106c15.802-3.329,31.793-6.735,48.058-7.949
	c10.933-0.815,25.015-1.97,35.463,1.857c11.465,4.199,25.299,16.008,28.463,28.001c3.374,12.788,0.327,28.655,0.608,41.94
	c7.244-7.92,18.129-10.168,24.813-18.466c4.829-5.996,8.908-11.372,15.048-16.072c8.778-6.721,20.221-8.957,30.177-13.308
	c13.414-5.861,26.825-9.615,41.399-11.254c24.963-2.808,55.89-3.347,70.065,22.036c2.955,5.291,8.08,13.754,7.298,20.267
	c-0.793,6.595-8.272,13.205-11.813,18.816c-3.914,6.203-8.104,13.144-12.955,18.587c-7.226,8.106-17.467,14.298-25.384,21.906
	c-6.625,6.365-13.731,11.675-21.429,16.77c-9.002,5.959-12.437,12.415-18.41,21.299c-5.457,8.116-12.637,12.73-19.116,19.569
	c-9.118,9.626-16.074,22.239-25.735,31.172c-10.274,9.501-17.06,18.946-21.507,32.155c-4.17,12.386-12.017,24.064-18.337,35.269
	c-6.133,10.871-9.894,20.604-11.042,33.04c-1.706,18.471-9.324,41.861-3.725,59.643"/>
</svg>
